<?xml version="1.0" encoding="UTF-8" standalone="no"?>
<svg
   xmlns:dc="http://purl.org/dc/elements/1.1/"
   xmlns:cc="http://creativecommons.org/ns#"
   xmlns:rdf="http://www.w3.org/1999/02/22-rdf-syntax-ns#"
   xmlns:svg="http://www.w3.org/2000/svg"
   xmlns="http://www.w3.org/2000/svg"
   xmlns:sodipodi="http://sodipodi.sourceforge.net/DTD/sodipodi-0.dtd"
   xmlns:inkscape="http://www.inkscape.org/namespaces/inkscape"
   width="47.986584mm"
   height="7.5654054mm"
   viewBox="0 0 47.986584 7.5654054"
   version="1.1"
   id="svg8"
   inkscape:version="1.0.1 (3bc2e813f5, 2020-09-07)"
   sodipodi:docname="drawing.svg">
  <defs
     id="defs2" />
  <sodipodi:namedview
     id="base"
     pagecolor="#ffffff"
     bordercolor="#666666"
     borderopacity="1.0"
     inkscape:pageopacity="0.0"
     inkscape:pageshadow="2"
     inkscape:zoom="2.8"
     inkscape:cx="223.57931"
     inkscape:cy="-1.3375795"
     inkscape:document-units="mm"
     inkscape:current-layer="layer1"
     inkscape:document-rotation="0"
     showgrid="false"
     inkscape:window-width="2560"
     inkscape:window-height="1016"
     inkscape:window-x="0"
     inkscape:window-y="0"
     inkscape:window-maximized="1"
     inkscape:pagecheckerboard="true" />
  <metadata
     id="metadata5">
    <rdf:RDF>
      <cc:Work
         rdf:about="">
        <dc:format>image/svg+xml</dc:format>
        <dc:type
           rdf:resource="http://purl.org/dc/dcmitype/StillImage" />
        <dc:title></dc:title>
      </cc:Work>
    </rdf:RDF>
  </metadata>
  <g
     inkscape:label="Layer 1"
     inkscape:groupmode="layer"
     id="layer1"
     transform="translate(-88.634679,-104.98661)">
    <g
       id="g391">
      <g
         aria-label="TheAlien"
         id="text12"
         style="font-style:normal;font-weight:normal;font-size:10.5833px;line-height:1.25;font-family:sans-serif;letter-spacing:0px;word-spacing:0px;fill:#000000;fill-opacity:1;stroke:none;stroke-width:0.264583">
        <path
           d="m 88.634679,105.56022 h 6.046123 v 0.62011 h -2.713004 v 0.77515 q 0.583942,0.10335 1.007687,0.52193 0.542601,0.5426 0.542601,1.31774 h 0.0052 v 0 0 h -0.0052 q 0,0.77515 -0.542601,1.31775 -0.423745,0.42374 -1.007687,0.51676 v 1.6278 h -0.620115 v -1.6278 q -0.594277,-0.093 -1.007687,-0.51676 -0.547769,-0.54777 -0.547769,-1.31775 v 0 0 0 0 q 0,-0.76997 0.547769,-1.31774 0.408242,-0.41858 1.002519,-0.52193 v -0.77515 h -2.707836 z m 3.023061,1.9947 v 0 0 0 0 q -0.511595,0 -0.878496,0.36174 -0.361734,0.37206 -0.361734,0.87849 v 0 0 0 0 q 0,0.5116 0.361734,0.87333 0.366901,0.3669 0.878496,0.3669 v 0 0 0 0 q 0.511596,0 0.873329,-0.3669 0.366902,-0.35657 0.366902,-0.87333 h -0.0052 v 0 0 h 0.0052 q 0,-0.51159 -0.366902,-0.87849 -0.361733,-0.36174 -0.873329,-0.36174 z"
           style="font-style:normal;font-variant:normal;font-weight:normal;font-stretch:normal;font-family:'Alien Lines';-inkscape-font-specification:'Alien Lines';stroke-width:0.264583"
           id="path200" />
        <path
           d="m 100.95947,110.03021 v 2.22725 h -0.62528 v -2.22725 z m -4.22712,-3.7982 v 2.17557 q 0.248046,-0.27905 0.578774,-0.47025 0.113688,-0.0724 0.253214,-0.12919 0.454751,-0.20154 0.971514,-0.20154 1.007687,0 1.710488,0.70796 0.14469,0.13953 0.26355,0.31006 0.10335,0.14986 0.21187,0.35657 0.23771,0.50126 0.23771,1.04902 h -0.62528 q 0,-0.41857 -0.1757,-0.78031 -0.0724,-0.13952 -0.15503,-0.26355 -0.08785,-0.11368 -0.196372,-0.22737 -0.527098,-0.53227 -1.271236,-0.53227 -0.366902,0 -0.723468,0.14986 -0.118855,0.0568 -0.186034,0.0982 -0.408243,0.23771 -0.651121,0.64595 -0.232544,0.39274 -0.242879,0.84233 v 2.29442 h -0.625283 v -6.02545 z m 1.803502,2.5373 v 0 0 q 0.52193,0 0.888832,0.36691 0.361734,0.3669 0.372069,0.89399 v 0 0 0 0 q -0.01033,0.53227 -0.372069,0.894 -0.366902,0.36691 -0.888832,0.36691 v 0 0 0 0 q -0.527098,0 -0.894,-0.36691 -0.366901,-0.3669 -0.366901,-0.894 h -0.0052 v 0 0 h 0.0052 q 0,-0.52709 0.366901,-0.89399 0.366902,-0.36691 0.894,-0.36691 z m 0,0.62012 v 0 0 0 0 q -0.263549,0 -0.454751,0.1912 -0.186035,0.18604 -0.186035,0.44958 v 0 0 0 0 q 0,0.26355 0.186035,0.44959 0.191202,0.18603 0.454751,0.18603 v 0 0 0 0 q 0.253214,0 0.449583,-0.18603 0.186035,-0.18604 0.186035,-0.44959 v 0 0 0 0 q 0,-0.26354 -0.186035,-0.44958 -0.191202,-0.1912 -0.449583,-0.1912 z"
           style="font-style:normal;font-variant:normal;font-weight:normal;font-stretch:normal;font-family:'Alien Lines';-inkscape-font-specification:'Alien Lines';stroke-width:0.264583"
           id="path202" />
        <path
           d="m 104.62848,112.26263 v 0 -0.005 q -1.02319,0 -1.74149,-0.7183 -0.7183,-0.7183 -0.7183,-1.74149 h -0.005 v 0 0 h 0.005 q 0,-1.01802 0.7183,-1.73632 0.71314,-0.72347 1.74149,-0.72347 v 0 0 0 0 q 1.01803,0 1.73633,0.72347 0.51159,0.50643 0.66145,1.20406 0.031,0.11885 0.0517,0.25838 0.0103,0.093 0.0103,0.15503 0,0 0,0.11885 v 0 0 0 q 0,0.0207 -0.005,0.031 v 0 l -0.0258,0.28422 h -0.28422 -0.80098 q -0.0879,0.3824 -0.3669,0.66145 -0.40308,0.40825 -0.97669,0.40825 v 0 0 0 0 q -0.5736,0 -0.98185,-0.40825 -0.40307,-0.40307 -0.40307,-0.97668 v 0 0 0 0 q 0,-0.5736 0.40307,-0.97668 0.40825,-0.40307 0.98185,-0.40307 v 0 0 0 0 q 0.57361,0 0.97669,0.40307 0.28421,0.29455 0.3669,0.66662 h 0.46508 q -0.0258,-0.10335 -0.0103,-0.0568 -0.0517,-0.1912 -0.1912,-0.51676 -0.12919,-0.22738 -0.31006,-0.41341 -0.53744,-0.53744 -1.29708,-0.53744 v 0 0 0 0 q -0.7648,0 -1.30224,0.53744 -0.53743,0.54777 -0.53743,1.29707 v 0 0 0 0 q 0,0.75964 0.53743,1.30224 0.5426,0.53744 1.30224,0.53744 v 0 0 z m 0,-3.2246 v 0 0 0 0 q -0.31005,0 -0.53743,0.22221 -0.22221,0.22221 -0.22221,0.53743 v 0 0 0 0 q 0,0.31523 0.22221,0.53743 0.22221,0.22221 0.53743,0.22221 v 0 0 0 0 q 0.31523,0 0.53227,-0.22221 0.22737,-0.22737 0.22737,-0.53743 h -0.005 v 0 0 h 0.005 q 0,-0.31006 -0.22737,-0.53743 -0.22221,-0.22221 -0.53227,-0.22221 z"
           style="fill:#00ff00"
           id="path204" />
        <path
           d="m 110.2612,108.24738 q 0.53743,0.0775 0.99218,0.41341 0.18604,0.13953 0.31006,0.28939 0.42374,0.48576 0.52193,1.12138 h 0.93017 v 0.62528 h -0.93017 q -0.10335,0.71313 -0.60978,1.21956 -0.63045,0.63045 -1.52962,0.63045 v 0.005 0 0 -0.005 q -0.894,0 -1.52962,-0.63045 -0.63045,-0.63562 -0.63045,-1.52962 v 0 0 0 0 q 0,-0.88883 0.63045,-1.52962 0.51677,-0.50642 1.21956,-0.60978 v -2.84736 -0.41341 l 0.39791,0.11369 q 2.48563,0.72863 3.7827,2.55797 1.28674,1.83451 1.36426,4.70254 l -0.62529,0.0155 q -0.0723,-2.682 -1.25056,-4.35631 -1.0697,-1.50378 -3.04373,-2.19108 z m 0.77514,3.2246 q 0.43925,-0.43925 0.44958,-1.06453 -0.11885,-1.04903 -0.85265,-1.39009 -0.18604,-0.0775 -0.3204,-0.10852 -0.18086,-0.0465 -0.38757,-0.062 -0.62528,0.0103 -1.06453,0.44958 -0.45475,0.45475 -0.45475,1.09037 h 0.005 v 0 0 h -0.005 q 0,0.63045 0.45475,1.0852 0.45475,0.45475 1.0852,0.45475 v 0 0 0 0 q 0.63562,0 1.09037,-0.45475 z"
           style="font-style:normal;font-variant:normal;font-weight:normal;font-stretch:normal;font-family:'Alien Lines';-inkscape-font-specification:'Alien Lines';stroke-width:0.264583"
           id="path206" />
        <path
           d="m 117.12897,106.04081 v 5.51902 q 0.42892,-0.10852 0.74414,-0.42374 0.0724,-0.0724 0.13436,-0.14986 0.34106,-0.43925 0.34106,-0.99736 h 0.62012 q 0,0.76998 -0.47026,1.37976 -0.10335,0.12919 -0.18603,0.20671 -0.30489,0.30489 -0.68213,0.47025 -0.44958,0.2067 -0.68729,0.21187 -0.0775,0.0103 -0.15503,-0.0103 -0.0465,-0.0155 -0.0465,-0.0155 -0.005,0 -0.0103,0 -0.005,0 -0.005,0 v 0.005 0 -0.0103 q -0.062,-0.0207 -0.12402,-0.0827 h -0.005 v 0 l -0.093,-0.093 v -0.12919 -5.88076 z"
           style="font-style:normal;font-variant:normal;font-weight:normal;font-stretch:normal;font-family:'Alien Lines';-inkscape-font-specification:'Alien Lines';stroke-width:0.264583"
           id="path208" />
        <path
           d="m 121.83151,109.0587 v 3.19876 h -0.62528 v -3.19876 q -0.38757,-0.093 -0.66662,-0.37207 -0.40308,-0.40307 -0.40308,-0.97668 v 0 0 0 0 q 0,-0.57361 0.40824,-0.97668 0.40308,-0.40308 0.97669,-0.40308 v 0 0 0 0 q 0.5736,0 0.97668,0.40308 0.40307,0.40307 0.40307,0.97668 v 0 0 0 0 q 0,0.57361 -0.40307,0.97668 -0.27905,0.27905 -0.66663,0.37207 z m -0.31005,-2.10839 v 0.005 0 0 -0.005 q -0.31006,0 -0.53744,0.22737 -0.22221,0.21705 -0.22221,0.53227 v 0 0 0 0 q 0,0.31523 0.22221,0.53743 0.22221,0.22221 0.53744,0.22221 v 0 0 0 0 q 0.31522,0 0.53226,-0.22221 0.22738,-0.22737 0.22738,-0.53743 h -0.005 v 0 0 h 0.005 q 0,-0.31006 -0.22738,-0.53227 -0.22221,-0.22737 -0.53226,-0.22737 z"
           style="font-style:normal;font-variant:normal;font-weight:normal;font-stretch:normal;font-family:'Alien Lines';-inkscape-font-specification:'Alien Lines';stroke-width:0.264583"
           id="path210" />
        <path
           d="m 126.46171,112.26263 v 0 -0.005 q -1.02319,0 -1.74149,-0.7183 -0.7183,-0.7183 -0.7183,-1.74149 h -0.005 v 0 0 h 0.005 q 0,-1.01802 0.7183,-1.73632 0.71313,-0.72347 1.74149,-0.72347 v 0 0 0 0 q 1.01802,0 1.73632,0.72347 0.51159,0.50643 0.66146,1.20406 0.031,0.11885 0.0517,0.25838 0.0103,0.093 0.0103,0.15503 0,0 0,0.11885 v 0 0 0 q 0,0.0207 -0.005,0.031 v 0 l -0.0258,0.28422 h -0.28422 -0.80098 q -0.0879,0.3824 -0.3669,0.66145 -0.40308,0.40825 -0.97668,0.40825 v 0 0 0 0 q -0.57361,0 -0.98185,-0.40825 -0.40308,-0.40307 -0.40308,-0.97668 v 0 0 0 0 q 0,-0.5736 0.40308,-0.97668 0.40824,-0.40307 0.98185,-0.40307 v 0 0 0 0 q 0.5736,0 0.97668,0.40307 0.28422,0.29455 0.3669,0.66662 h 0.46509 q -0.0258,-0.10335 -0.0103,-0.0568 -0.0517,-0.1912 -0.1912,-0.51676 -0.12919,-0.22738 -0.31006,-0.41341 -0.53743,-0.53744 -1.29707,-0.53744 v 0 0 0 0 q -0.76481,0 -1.30225,0.53744 -0.53743,0.54777 -0.53743,1.29707 v 0 0 0 0 q 0,0.75964 0.53743,1.30224 0.54261,0.53744 1.30225,0.53744 v 0 0 z m 0,-3.2246 v 0 0 0 0 q -0.31006,0 -0.53744,0.22221 -0.2222,0.22221 -0.2222,0.53743 v 0 0 0 0 q 0,0.31523 0.2222,0.53743 0.22221,0.22221 0.53744,0.22221 v 0 0 0 0 q 0.31522,0 0.53226,-0.22221 0.22738,-0.22737 0.22738,-0.53743 h -0.005 v 0 0 h 0.005 q 0,-0.31006 -0.22738,-0.53743 -0.22221,-0.22221 -0.53226,-0.22221 z"
           style="fill:#00ff00"
           id="path212" />
        <path
           d="m 131.08156,112.25746 q -0.95084,-0.94051 -0.95084,-2.29442 v 0 q 0,-0.26872 0.0465,-0.54261 0.0517,-0.30489 0.13436,-0.52709 0.24804,-0.7028 0.76997,-1.22473 0.62012,-0.62012 1.47278,-0.84232 0.27388,-0.0724 0.60461,-0.0982 0.30489,-0.0207 0.60461,0.0155 1.11104,0.13436 1.90686,0.92501 0.95084,0.96118 0.95084,2.29443 0,0.27388 -0.0465,0.5426 -0.0465,0.26871 -0.13952,0.53226 -0.24805,0.70797 -0.76481,1.21956 L 135.226,111.8182 q 0.42375,-0.42374 0.62528,-0.98701 0.0672,-0.20154 0.10852,-0.42892 0.0362,-0.1912 0.0362,-0.43924 0,-1.08004 -0.76998,-1.85001 -0.63562,-0.64079 -1.53478,-0.74931 -0.25322,-0.031 -0.49093,-0.0155 -0.26871,0.0258 -0.49092,0.0827 -0.6873,0.18087 -1.18856,0.68213 -0.42891,0.42891 -0.62011,0.98184 -0.0827,0.24805 -0.10852,0.42892 -0.0362,0.2067 -0.0362,0.43925 v 0 q 0,1.09036 0.76481,1.85517 z"
           style="font-style:normal;font-variant:normal;font-weight:normal;font-stretch:normal;font-family:'Alien Lines';-inkscape-font-specification:'Alien Lines';stroke-width:0.264583"
           id="path214" />
      </g>
      <g
         id="g79"
         transform="matrix(0.11037035,0,0,0.11037035,130.59231,106.41336)">
        <g
           id="g22">
	<path
   d="M 34.991,19.374 C 34.947,16.563 33.455,13.968 30.963,12.297 30.638,9.043 28.089,6.5 25,6.5 c -3.089,0 -5.638,2.543 -5.963,5.797 -2.492,1.671 -3.984,4.266 -4.028,7.077 C 13.214,20.498 12,22.596 12,25 c 0,3.584 2.691,6.5 6,6.5 2.188,0 4.101,-1.279 5.149,-3.18 0.619,0.107 1.238,0.18 1.851,0.18 0.613,0 1.232,-0.073 1.851,-0.18 1.048,1.901 2.961,3.18 5.149,3.18 3.309,0 6,-2.916 6,-6.5 0,-2.404 -1.214,-4.502 -3.009,-5.626 z M 25,8.5 c 2.206,0 4,2.019 4,4.5 0,2.481 -1.794,4.5 -4,4.5 -2.206,0 -4,-2.018 -3.998,-4.522 C 21.013,10.507 22.801,8.5 25,8.5 Z m -7,21 c -2.206,0 -4,-2.019 -4,-4.5 0,-1.892 1.045,-3.507 2.518,-4.172 0.223,-0.101 0.451,-0.184 0.685,-0.238 0.258,-0.058 0.524,-0.09 0.797,-0.09 2.206,0 4,2.019 4,4.5 0,0.313 -0.03,0.622 -0.086,0.923 -0.01,0.055 -0.032,0.104 -0.044,0.158 -0.054,0.244 -0.118,0.487 -0.21,0.72 C 21.041,28.387 19.636,29.5 18,29.5 Z m 8.146,-3.076 c -0.768,0.101 -1.523,0.101 -2.291,0 0.003,-0.017 0.004,-0.034 0.008,-0.051 0.031,-0.156 0.053,-0.316 0.074,-0.477 0.009,-0.068 0.022,-0.135 0.029,-0.204 C 23.987,25.465 24,25.234 24,25 c 0,-3.584 -2.691,-6.5 -6,-6.5 -0.28,0 -0.554,0.028 -0.825,0.069 -0.035,0.005 -0.071,0.003 -0.106,0.009 0.224,-1.467 0.974,-2.83 2.134,-3.897 0.007,0.028 0.019,0.053 0.027,0.08 0.078,0.299 0.173,0.589 0.288,0.868 0.02,0.049 0.043,0.096 0.065,0.145 0.12,0.275 0.255,0.541 0.408,0.794 0.009,0.015 0.017,0.031 0.026,0.046 0.16,0.259 0.341,0.5 0.533,0.73 0.037,0.044 0.073,0.089 0.111,0.132 0.192,0.219 0.398,0.423 0.616,0.612 0.04,0.034 0.081,0.066 0.122,0.099 0.226,0.185 0.462,0.357 0.712,0.507 0.008,0.005 0.016,0.011 0.024,0.016 0.254,0.15 0.523,0.275 0.797,0.385 0.052,0.021 0.103,0.043 0.156,0.062 0.27,0.099 0.547,0.177 0.833,0.234 0.054,0.011 0.108,0.018 0.162,0.027 0.3,0.05 0.605,0.084 0.918,0.084 0.313,0 0.618,-0.034 0.918,-0.084 0.054,-0.009 0.109,-0.016 0.162,-0.027 0.285,-0.057 0.563,-0.135 0.833,-0.234 0.053,-0.019 0.104,-0.041 0.156,-0.062 0.275,-0.11 0.543,-0.234 0.797,-0.385 0.008,-0.005 0.016,-0.011 0.024,-0.016 0.25,-0.149 0.485,-0.322 0.712,-0.507 0.041,-0.033 0.082,-0.065 0.122,-0.099 0.219,-0.188 0.424,-0.393 0.616,-0.612 0.038,-0.043 0.074,-0.088 0.111,-0.132 0.192,-0.231 0.373,-0.472 0.533,-0.73 0.009,-0.015 0.017,-0.031 0.026,-0.046 0.154,-0.252 0.288,-0.519 0.408,-0.794 0.021,-0.049 0.044,-0.096 0.065,-0.145 0.115,-0.28 0.21,-0.57 0.288,-0.868 0.007,-0.028 0.02,-0.052 0.027,-0.08 1.16,1.068 1.91,2.431 2.134,3.897 C 32.898,18.572 32.862,18.574 32.827,18.569 32.554,18.528 32.28,18.5 32,18.5 c -3.309,0 -6,2.916 -6,6.5 0,0.234 0.013,0.465 0.035,0.693 0.007,0.068 0.02,0.135 0.029,0.204 0.021,0.16 0.042,0.32 0.074,0.477 0.003,0.016 0.004,0.034 0.008,0.05 z M 32,29.5 c -1.636,0 -3.041,-1.113 -3.66,-2.699 -0.091,-0.234 -0.155,-0.476 -0.21,-0.72 C 28.118,26.027 28.097,25.978 28.086,25.923 28.03,25.622 28,25.313 28,25 c 0,-2.481 1.794,-4.5 4,-4.5 0.273,0 0.539,0.032 0.797,0.091 0.234,0.054 0.462,0.137 0.685,0.238 C 34.955,21.493 36,23.108 36,25 c 0,2.481 -1.794,4.5 -4,4.5 z"
   id="path18" />

	<path
   d="M 25,2.5 C 12.851,2.5 0,17.631 0,31.938 0,33.902 1.524,35.5 3.397,35.5 H 4.918 C 4.37,41.812 9.042,46.94 9.267,47.181 9.461,47.389 9.728,47.5 10,47.5 c 0.123,0 0.247,-0.022 0.366,-0.069 C 10.748,47.28 11,46.911 11,46.5 c 0,-0.626 -0.005,-1.233 -0.01,-1.819 -0.033,-3.928 -0.057,-6.766 1.433,-8.254 0.276,-0.276 0.496,-0.591 0.675,-0.927 h 1.756 c -0.173,2.055 -0.022,6.297 3.444,9.712 0.191,0.188 0.444,0.288 0.702,0.288 0.127,0 0.255,-0.024 0.377,-0.074 0.37,-0.151 0.615,-0.508 0.623,-0.907 0.055,-2.855 0.741,-7.685 2.34,-9.019 h 5.321 c 1.596,1.332 2.284,6.163 2.34,9.02 0.008,0.399 0.253,0.756 0.623,0.907 0.121,0.049 0.249,0.073 0.376,0.073 0.258,0 0.511,-0.1 0.702,-0.288 3.466,-3.415 3.617,-7.658 3.444,-9.712 h 1.756 c 0.179,0.335 0.4,0.651 0.675,0.926 1.489,1.489 1.466,4.327 1.433,8.255 C 39.005,45.267 39,45.874 39,46.5 c 0,0.411 0.252,0.78 0.634,0.931 0.119,0.047 0.243,0.069 0.366,0.069 0.272,0 0.539,-0.111 0.732,-0.319 0.225,-0.241 4.897,-5.369 4.349,-11.681 h 1.654 C 48.566,35.5 50,33.984 50,32.049 50,19.42 37.64,2.5 25,2.5 Z M 8.981,43.382 C 7.744,41.31 6.415,38.136 7.033,34.744 L 7.044,34.687 C 7.109,34.345 7.187,34 7.294,33.65 c 0.333,-1.078 1.138,-1.88 2.099,-2.094 0.151,-0.034 0.29,-0.047 0.424,-0.051 0.034,-10e-4 0.067,-10e-4 0.1,-10e-4 0.135,0.004 0.263,0.02 0.383,0.056 0.017,0.005 0.034,0.014 0.051,0.02 0.11,0.039 0.215,0.093 0.314,0.161 0.018,0.012 0.036,0.022 0.054,0.036 0.105,0.08 0.204,0.18 0.299,0.296 0.019,0.023 0.037,0.049 0.056,0.073 0.095,0.127 0.187,0.266 0.274,0.432 0.093,0.178 0.149,0.369 0.188,0.563 0.008,0.041 0.017,0.082 0.023,0.124 0.026,0.189 0.03,0.38 0.007,0.568 -0.004,0.035 -0.015,0.069 -0.021,0.103 -0.071,0.404 -0.245,0.787 -0.534,1.076 -1.865,1.863 -2.038,4.743 -2.03,8.37 z M 18.18,41.847 C 16.706,39.355 16.729,36.763 16.859,35.5 h 3 c -1.005,1.837 -1.466,4.411 -1.679,6.347 z m 13.64,0 C 31.607,39.911 31.145,37.337 30.141,35.5 h 3 c 0.13,1.264 0.153,3.856 -1.321,6.347 z m 9.199,1.535 c 0.009,-3.627 -0.165,-6.508 -2.027,-8.371 -0.289,-0.289 -0.464,-0.671 -0.534,-1.075 -0.006,-0.035 -0.017,-0.069 -0.021,-0.104 -0.023,-0.188 -0.019,-0.379 0.007,-0.567 0.006,-0.042 0.015,-0.083 0.023,-0.124 0.039,-0.193 0.094,-0.385 0.188,-0.563 0.087,-0.166 0.179,-0.305 0.274,-0.432 0.019,-0.025 0.037,-0.05 0.056,-0.074 0.095,-0.116 0.194,-0.216 0.299,-0.296 0.017,-0.013 0.035,-0.023 0.053,-0.035 0.1,-0.07 0.206,-0.124 0.318,-0.163 0.016,-0.005 0.03,-0.013 0.046,-0.018 0.121,-0.037 0.25,-0.054 0.387,-0.057 0.031,-0.001 0.063,0 0.095,0.001 0.135,0.004 0.274,0.017 0.427,0.051 0.24,0.053 0.471,0.144 0.686,0.266 0.647,0.366 1.162,1.02 1.412,1.829 0.107,0.348 0.185,0.693 0.25,1.036 l 0.009,0.045 c 0.621,3.398 -0.71,6.576 -1.948,8.651 z M 46.735,33.5 h -1.994 c -0.039,-0.152 -0.081,-0.298 -0.125,-0.439 -0.544,-1.763 -1.914,-3.088 -3.575,-3.457 -0.223,-0.05 -0.44,-0.082 -0.653,-0.097 -1.488,-0.104 -2.719,0.641 -3.506,2.142 -0.137,0.262 -0.233,0.536 -0.309,0.814 -0.016,0.06 -0.031,0.119 -0.044,0.18 -0.065,0.283 -0.109,0.57 -0.113,0.857 H 34 28 22 16 13.585 C 13.581,33.213 13.536,32.926 13.472,32.643 13.458,32.583 13.444,32.524 13.428,32.464 13.351,32.186 13.256,31.911 13.118,31.649 12.442,30.362 11.44,29.631 10.232,29.514 9.829,29.475 9.403,29.504 8.959,29.603 8.544,29.695 8.147,29.847 7.776,30.051 6.664,30.662 5.792,31.737 5.384,33.059 5.34,33.201 5.298,33.347 5.259,33.499 H 3.397 C 2.627,33.5 2,32.799 2,31.938 2,18.86 14.037,4.5 25,4.5 c 11.41,0 23,16.028 23,27.549 0,0.703 -0.443,1.451 -1.265,1.451 z"
   id="path20" />

</g>
        <g
           id="g24">
</g>
        <g
           id="g26">
</g>
        <g
           id="g28">
</g>
        <g
           id="g30">
</g>
        <g
           id="g32">
</g>
        <g
           id="g34">
</g>
        <g
           id="g36">
</g>
        <g
           id="g38">
</g>
        <g
           id="g40">
</g>
        <g
           id="g42">
</g>
        <g
           id="g44">
</g>
        <g
           id="g46">
</g>
        <g
           id="g48">
</g>
        <g
           id="g50">
</g>
        <g
           id="g52">
</g>
      </g>
    </g>
  </g>
</svg>
